<?xml version="1.0" encoding="iso-8859-1"?>
<!-- Generator: Adobe Illustrator 19.0.0, SVG Export Plug-In . SVG Version: 6.00 Build 0)  -->
<svg version="1.1" id="Layer_1" xmlns="http://www.w3.org/2000/svg" xmlns:xlink="http://www.w3.org/1999/xlink" x="0px" y="0px"
	 viewBox="0 0 296.057 296.057" style="enable-background:new 0 0 296.057 296.057;" xml:space="preserve">
<g>
	<g>
		<g>
			<path d="M233.907,122.462l24.195-79.229L244.021,7.814l-31.467,21.51l-27.643,90.543h-3.281V63.195l5.114-25.581L157.82,2.904
				l-28.924,34.71l5.114,25.581v56.671h-7.39L103.407,0L37.955,12.676l20.833,107.571c-8.69,1.767-15.252,9.462-15.252,18.667
				c0,8.848,6.095,16.243,14.286,18.371v119.91c0,10.4,8.462,18.862,18.862,18.862h133.7c10.405,0,18.867-8.462,18.867-18.862
				v-119.91c8.19-2.129,14.286-9.524,14.286-18.371C243.536,131.852,239.631,125.748,233.907,122.462z M224.741,119.867
				c-0.086,0-0.171,0-0.252,0h-9.705l23.219-76.048l9.109,2.781L224.741,119.867z M239.569,22.395l5.405,13.595l-17.481-5.338
				L239.569,22.395z M219.788,38.257l9.11,2.781l-24.071,78.829h-9.957L219.788,38.257z M157.821,17.781l18.695,22.433
				l-3.552,17.748h-10.381V43.676h-9.524v14.286h-10.381l-3.552-17.748L157.821,17.781z M143.536,77.01v-9.524h28.571v9.524H143.536
				z M172.107,86.533v33.333h-28.571V86.533H172.107z M58.163,66.962l-1.81-9.348l23.376-4.529l-1.81-9.352l-23.376,4.529
				l-1.81-9.348L66.76,36.2l-1.81-9.352l-14.024,2.714l-1.81-9.348l46.753-9.052l21.048,108.705H68.412l-1.19-6.152L81.245,111
				l-1.81-9.352l-14.029,2.714l-1.81-9.348l23.376-4.529l-1.81-9.352l-23.376,4.529l-1.81-9.348L74.002,73.6l-1.81-9.352
				L58.163,66.962z M219.726,277.195c0,5.148-4.19,9.338-9.338,9.338H76.683c-5.148,0-9.338-4.19-9.338-9.338V157.962h152.381
				V277.195z M224.488,148.438H62.583c-5.252,0-9.524-4.271-9.524-9.524c0-5.252,4.271-9.524,9.524-9.524h65.881h5.548h47.619
				h42.857c0.7,0,1.467,0.114,2.405,0.362l0.371,0.1c3.89,1.195,6.748,4.781,6.748,9.062
				C234.012,144.167,229.74,148.438,224.488,148.438z"/>
			<path d="M210.202,181.771H76.869v61.905h133.333V181.771z M200.679,234.152H86.393v-42.857h114.286V234.152z"/>
		</g>
	</g>
</g>
<g>
</g>
<g>
</g>
<g>
</g>
<g>
</g>
<g>
</g>
<g>
</g>
<g>
</g>
<g>
</g>
<g>
</g>
<g>
</g>
<g>
</g>
<g>
</g>
<g>
</g>
<g>
</g>
<g>
</g>
</svg>
