<?xml version="1.0" encoding="iso-8859-1"?>
<!-- Generator: Adobe Illustrator 19.0.0, SVG Export Plug-In . SVG Version: 6.00 Build 0)  -->
<svg version="1.1" id="Layer_1" xmlns="http://www.w3.org/2000/svg" xmlns:xlink="http://www.w3.org/1999/xlink" x="0px" y="0px"
	 viewBox="0 0 512.001 512.001" style="enable-background:new 0 0 512.001 512.001;" xml:space="preserve">
<g>
	<g>
		<g>
			<path d="M169.723,314.648c16.292,16.292,37.696,24.439,59.098,24.439c21.402,0,42.805-8.147,59.098-24.44
				c15.787-15.786,24.48-36.773,24.48-59.097c0-22.323-8.693-43.312-24.48-59.098c-32.585-32.585-85.611-32.585-118.195,0
				c-15.787,15.785-24.48,36.773-24.48,59.097S153.936,298.862,169.723,314.648z M181.154,207.886
				c26.284-26.282,69.051-26.281,95.332,0c12.732,12.732,19.743,29.659,19.743,47.664s-7.012,34.932-19.743,47.663
				c-26.284,26.283-69.049,26.283-95.332,0c-12.732-12.731-19.743-29.658-19.743-47.663S168.423,220.618,181.154,207.886z"/>
			<path d="M476.373,430.897l-72.681-72.866c16.769-28.595,26.198-60.841,27.515-94.059h34.966c5.13,0,10.104-2.127,13.65-5.835
				c3.589-3.752,5.439-8.672,5.208-13.852c-2.852-63.951-29.403-124.151-74.762-169.508C364.912,29.421,304.711,2.87,240.759,0.018
				c-5.178-0.221-10.099,1.618-13.853,5.207c-3.708,3.546-5.835,8.523-5.835,13.653v34.965
				C113.308,58.1,26.947,147.099,26.947,255.886c0,111.496,90.711,202.206,202.211,202.206c36.034,0,71.185-9.536,102.081-27.636
				l72.688,72.873c5.782,5.782,13.373,8.672,20.968,8.672c7.593,0,15.189-2.891,20.968-8.672l30.503-30.502
				c5.602-5.601,8.687-13.047,8.687-20.968C485.052,443.937,481.968,436.49,476.373,430.897z M391.853,346.161l-8.603-8.624
				c-0.002-0.002-0.004-0.004-0.007-0.006c-5.601-5.601-13.047-8.686-20.968-8.686c-5.148,0-10.097,1.303-14.468,3.753
				l-14.796-14.794c9.755-16.26,15.538-34.607,16.847-53.831h65.166C413.779,292.886,405.854,320.976,391.853,346.161z
				 M335.59,343.246l-19.07,19.07l-11.971-11.971c3.479-2.783,6.839-5.786,10.061-9.008c3.211-3.21,6.217-6.565,9.016-10.057
				L335.59,343.246z M237.242,18.877c0-1.011,0.527-1.666,0.841-1.967c0.309-0.294,0.97-0.785,1.956-0.739
				c124.89,5.571,223.272,103.948,228.842,228.834c0.043,0.983-0.445,1.648-0.741,1.956c-0.301,0.315-0.957,0.842-1.967,0.842
				H349.903c-1.845-29.492-14.213-56.96-35.294-78.04c-21.513-21.513-49.164-33.241-77.367-35.188V18.877z M228.821,150.447
				c26.928,0,53.856,10.25,74.356,30.749c19.861,19.86,30.799,46.266,30.799,74.354c0,0.024,0,0.05,0,0.073
				c-0.003,0.087-0.004,0.176-0.004,0.263c0,0.072,0.001,0.143,0.003,0.216c-0.107,20.896-6.27,40.842-17.658,57.831
				c-0.231,0.293-0.438,0.6-0.622,0.916c-3.661,5.339-7.841,10.377-12.518,15.054c-4.815,4.815-9.982,9.062-15.423,12.746
				c-0.06,0.04-0.12,0.08-0.179,0.121c-17.687,11.923-38.218,17.883-58.756,17.882c-26.925-0.002-53.859-10.253-74.356-30.749
				c-19.861-19.861-30.799-46.268-30.799-74.354c0-28.087,10.937-54.493,30.799-74.354
				C174.965,160.696,201.893,150.447,228.821,150.447z M229.158,441.922c-102.584,0-186.042-83.455-186.042-186.036
				c0-99.87,79.113-181.611,177.958-185.862v64.507c-28.439,1.802-56.356,13.547-78.041,35.232
				c-22.916,22.914-35.536,53.381-35.536,85.787s12.62,62.872,35.536,85.787c40.074,40.072,101.434,46.201,148.018,18.375
				l14.821,14.821c-2.45,4.371-3.753,9.318-3.753,14.466c0,7.92,3.085,15.368,8.679,20.961l8.609,8.632
				C291.887,433.884,260.894,441.922,229.158,441.922z M464.935,461.392l-30.503,30.502c-5.259,5.26-13.814,5.258-19.066,0.008
				l-77.053-77.25c-0.079-0.083-0.16-0.164-0.243-0.242l-15.834-15.875c-2.546-2.547-3.949-5.933-3.949-9.535
				c0-3.601,1.403-6.988,3.949-9.534l30.505-30.503c5.257-5.257,13.812-5.259,19.069,0l15.832,15.873
				c0.077,0.081,0.157,0.16,0.237,0.238l77.054,77.25c2.547,2.547,3.949,5.933,3.949,9.534
				C468.883,455.458,467.482,458.844,464.935,461.392z"/>
		</g>
	</g>
</g>
<g>
</g>
<g>
</g>
<g>
</g>
<g>
</g>
<g>
</g>
<g>
</g>
<g>
</g>
<g>
</g>
<g>
</g>
<g>
</g>
<g>
</g>
<g>
</g>
<g>
</g>
<g>
</g>
<g>
</g>
</svg>
