<?xml version="1.0" encoding="iso-8859-1"?>
<!-- Generator: Adobe Illustrator 19.0.0, SVG Export Plug-In . SVG Version: 6.00 Build 0)  -->
<svg version="1.1" id="Capa_1" xmlns="http://www.w3.org/2000/svg" xmlns:xlink="http://www.w3.org/1999/xlink" x="0px" y="0px"
	 viewBox="0 0 470 470" style="enable-background:new 0 0 470 470;" xml:space="preserve">
<g>
	<path d="M467.665,427.277l-83.359-233.02V105h2.5c4.143,0,7.5-3.358,7.5-7.5s-3.357-7.5-7.5-7.5H271.311
		c-4.143,0-7.5,3.358-7.5,7.5s3.357,7.5,7.5,7.5h2.5v89.258l-83.359,233.02c-3.899,10.899-2.854,21.811,2.869,29.937
		C199.044,465.34,208.966,470,220.542,470h217.033c11.576,0,21.498-4.66,27.221-12.786
		C470.518,449.088,471.564,438.177,467.665,427.277z M452.532,448.577c-2.917,4.142-8.229,6.423-14.957,6.423H220.542
		c-6.728,0-12.04-2.281-14.957-6.423s-3.275-9.912-1.01-16.247l83.798-234.245c0.29-0.811,0.438-1.666,0.438-2.526V105h80.494
		v90.559c0,0.861,0.148,1.715,0.438,2.526l83.798,234.245C455.807,438.665,455.449,444.435,452.532,448.577z"/>
	<path d="M294.679,247.255c0.835,0.299,1.688,0.44,2.526,0.44c3.079,0,5.965-1.911,7.062-4.976l14.105-39.43
		c0.29-0.811,0.438-1.666,0.438-2.526V127.5c0-4.142-3.357-7.5-7.5-7.5s-7.5,3.358-7.5,7.5v71.962l-13.667,38.205
		C288.749,241.567,290.779,245.86,294.679,247.255z"/>
	<path d="M412.788,362.943c-1.396-3.901-5.687-5.93-9.588-4.535c-3.9,1.395-5.931,5.688-4.535,9.588L419.057,425H239.059
		l52.696-147.307h74.605l22.199,62.056c1.396,3.9,5.688,5.932,9.588,4.535c3.9-1.395,5.931-5.688,4.535-9.588l-23.979-67.029
		c-1.066-2.983-3.894-4.974-7.062-4.974h-85.17c-3.168,0-5.995,1.991-7.062,4.974l-58.063,162.307
		c-0.822,2.297-0.475,4.851,0.93,6.845c1.405,1.995,3.692,3.181,6.132,3.181h201.295c2.439,0,4.727-1.187,6.132-3.181
		s1.752-4.548,0.93-6.845L412.788,362.943z"/>
	<path d="M110.012,218.774l-13.323,5.951c-19.81,8.848-36.551,23.154-48.416,41.371c-2.261,3.471-1.28,8.117,2.19,10.378
		c1.264,0.823,2.684,1.216,4.087,1.216c2.451,0,4.854-1.201,6.291-3.408c10.286-15.792,24.798-28.193,41.965-35.861l17.765-7.936
		c2.702-1.207,4.441-3.889,4.441-6.848V127.5c0-4.142-3.357-7.5-7.5-7.5s-7.5,3.358-7.5,7.5V218.774z"/>
	<path d="M117.512,105c4.143,0,7.5-3.358,7.5-7.5v-60c0-4.142-3.357-7.5-7.5-7.5s-7.5,3.358-7.5,7.5v60
		C110.012,101.642,113.37,105,117.512,105z"/>
	<path d="M167.844,452.485c-8.281,1.668-16.804,2.515-25.331,2.515c-70.304,0-127.5-57.196-127.5-127.5
		c0-50.25,29.658-95.967,75.559-116.471c2.702-1.207,4.441-3.889,4.441-6.848V15h95v189.182c0,2.959,1.739,5.641,4.441,6.848
		c13.885,6.202,26.455,14.778,37.36,25.491c1.46,1.435,3.358,2.15,5.256,2.15c1.941,0,3.882-0.75,5.351-2.244
		c2.902-2.955,2.86-7.704-0.095-10.606c-11.012-10.817-23.545-19.687-37.313-26.412V15h2.5c4.143,0,7.5-3.358,7.5-7.5
		s-3.357-7.5-7.5-7.5h-130c-4.143,0-7.5,3.358-7.5,7.5s3.357,7.5,7.5,7.5h2.5v184.41c-48.759,23.822-80,73.569-80,128.09
		c0,78.575,63.925,142.5,142.5,142.5c9.521,0,19.04-0.945,28.294-2.811c4.061-0.818,6.689-4.773,5.871-8.833
		S171.905,451.667,167.844,452.485z"/>
	<path d="M212.018,307.692c4.142,0,7.5-3.358,7.5-7.5s-3.357-7.5-7.5-7.5l-170.879-0.003c-3.388,0-6.355,2.272-7.24,5.542
		c-2.579,9.54-3.887,19.387-3.887,29.268c0,62.033,50.468,112.5,112.5,112.5c8.699,0,17.371-1.003,25.776-2.981
		c4.031-0.949,6.531-4.987,5.582-9.019c-0.95-4.032-4.986-6.531-9.02-5.582c-7.279,1.713-14.795,2.582-22.339,2.582
		c-53.762,0-97.5-43.738-97.5-97.5c0-6.658,0.686-13.299,2.042-19.811L212.018,307.692z"/>
</g>
<g>
</g>
<g>
</g>
<g>
</g>
<g>
</g>
<g>
</g>
<g>
</g>
<g>
</g>
<g>
</g>
<g>
</g>
<g>
</g>
<g>
</g>
<g>
</g>
<g>
</g>
<g>
</g>
<g>
</g>
</svg>
