<?xml version="1.0" encoding="iso-8859-1"?>
<!-- Generator: Adobe Illustrator 19.0.0, SVG Export Plug-In . SVG Version: 6.00 Build 0)  -->
<svg version="1.1" id="Layer_1" xmlns="http://www.w3.org/2000/svg" xmlns:xlink="http://www.w3.org/1999/xlink" x="0px" y="0px"
	 viewBox="0 0 301.295 301.295" style="enable-background:new 0 0 301.295 301.295;" xml:space="preserve">
<g>
	<g>
		<path d="M294.126,205.888h-10.7V61.694c0-3.959-3.21-7.169-7.168-7.169H25.037c-3.959,0-7.168,3.21-7.168,7.169v144.194h-10.7
			c-3.959,0-7.169,3.21-7.169,7.169c0,18.589,15.123,33.712,33.713,33.712h233.87c18.589,0,33.713-15.123,33.712-33.712
			C301.295,209.097,298.085,205.888,294.126,205.888z M32.206,156.275l27.641-27.641c2.799-2.8,2.799-7.338,0-10.138
			c-2.8-2.799-7.338-2.799-10.139,0l-17.503,17.504V68.863h236.883v137.026H98.838l18.85-18.848c2.799-2.8,2.799-7.338,0-10.138
			c-2.8-2.8-7.338-2.8-10.139,0L78.562,205.89H41.08l25.5-25.5c2.8-2.8,2.8-7.338,0-10.138c-2.8-2.799-7.338-2.799-10.138,0
			l-24.236,24.237V156.275z M267.583,232.432H33.713c-8.153,0-15.145-5.06-18.001-12.206h269.872
			C282.728,227.371,275.735,232.432,267.583,232.432z"/>
	</g>
</g>
<g>
</g>
<g>
</g>
<g>
</g>
<g>
</g>
<g>
</g>
<g>
</g>
<g>
</g>
<g>
</g>
<g>
</g>
<g>
</g>
<g>
</g>
<g>
</g>
<g>
</g>
<g>
</g>
<g>
</g>
</svg>
